<svg width="48" height="48" viewBox="0 0 48 48" fill="none" xmlns="http://www.w3.org/2000/svg">
<path d="M16.5 11.25C16.9142 11.25 17.25 10.9142 17.25 10.5C17.25 10.0858 16.9142 9.75 16.5 9.75C16.0858 9.75 15.75 10.0858 15.75 10.5C15.75 10.9142 16.0858 11.25 16.5 11.25Z" fill="#FF0000"/>
<path d="M27.75 25.5C27.75 20.6535 25.1655 16.2165 20.9842 13.806C20.8762 11.3115 19.8983 9.1965 19.2255 8.02725C20.6903 7.5165 21.75 6.1365 21.75 4.5C21.75 2.43225 20.0677 0.75 18 0.75C17.163 0.75 16.398 1.035 15.7733 1.5H13.2502C8.42475 1.5 4.5 5.42475 4.5 10.2502C4.5 11.9183 4.9905 13.5375 5.865 14.9227C2.6505 17.475 0.75 21.375 0.75 25.5C0.75 32.9437 6.80625 39 14.25 39C16.5435 39 18.7035 38.4217 20.5972 37.4077L30.4395 47.25H30.75C33.6442 47.25 36 44.895 36 42V41.6895L26.1577 31.8473C27.1717 29.9535 27.75 27.7935 27.75 25.5ZM11.25 24.4635V33.975C10.131 33.5775 9.1155 32.967 8.24925 32.1885L8.25 24.2887C8.25 22.3065 9.35775 20.544 11.097 19.6575L14.25 22.8105L15.903 21.1575C17.6423 22.044 18.75 23.8065 18.75 25.7887V33.282C17.4247 34.0515 15.8903 34.5 14.25 34.5C13.7378 34.5 13.239 34.4468 12.75 34.3643V23.5365L10.8352 22.5795L10.164 23.9212L11.25 24.4635ZM9.14475 18.1087L9.852 18.639C7.9395 19.8555 6.75 21.9562 6.75 24.2887L6.74925 30.4627C5.80425 29.0393 5.25 27.3337 5.25 25.5C5.25 22.512 6.705 19.7925 9.14475 18.1087ZM16.5 19.7633V18.5625C16.9748 18.402 17.415 18.1455 17.7803 17.781C17.907 17.6542 18.015 17.5155 18.1185 17.373C21.255 18.8595 23.25 21.9825 23.25 25.5C23.25 28.1565 22.086 30.54 20.25 32.1892V25.7887C20.25 23.2005 18.7943 20.8875 16.5 19.7633ZM17.25 14.4592V15.4395C17.25 15.9233 17.0617 16.3777 16.7197 16.7197C16.3777 17.0617 15.9225 17.25 15.4395 17.25H13.5V18.75H15V19.9395L14.25 20.6895L12 18.4395V14.8717C12 14.271 11.7653 13.7055 11.3407 13.2803L10.7198 12.6593C10.578 12.5175 10.5 12.3285 10.5 12.1283V12C10.5 11.5868 10.836 11.25 11.25 11.25H12V9C12 8.58675 12.336 8.25 12.75 8.25H16.5H17.6047C18.099 9.012 19.3283 11.145 19.4842 13.7153L17.25 14.4592ZM13.2502 3H14.568C14.3655 3.4605 14.25 3.966 14.25 4.5H15.75C15.75 3.2595 16.7595 2.25 18 2.25C19.2405 2.25 20.25 3.2595 20.25 4.5C20.25 5.7405 19.2405 6.75 18 6.75H16.5H12.75C11.5095 6.75 10.5 7.7595 10.5 9V9.87825C9.627 10.188 9 11.022 9 12V12.1283C9 12.729 9.23475 13.2945 9.65925 13.7197L10.2802 14.3407C10.422 14.4825 10.5 14.6715 10.5 14.8717V17.2507L8.8995 16.0507C7.08375 14.688 6 12.5197 6 10.2502C6 6.252 9.25275 3 13.2502 3ZM2.25 25.5C2.25 21.8423 3.93075 18.3832 6.77625 16.113C7.1145 16.488 7.482 16.839 7.88625 17.1525C5.28 19.1333 3.75 22.179 3.75 25.5C3.75 31.29 8.46 36 14.25 36C20.04 36 24.75 31.29 24.75 25.5C24.75 21.3713 22.3927 17.7097 18.693 15.9877C18.7178 15.84 18.744 15.693 18.7485 15.5408L20.1705 15.0668C23.9265 17.202 26.25 21.1672 26.25 25.5C26.25 32.1165 20.8665 37.5 14.25 37.5C7.6335 37.5 2.25 32.1165 2.25 25.5ZM34.488 42.2985C34.3433 44.1285 32.8785 45.5933 31.0485 45.738L21.912 36.6015C23.2552 35.6715 24.4215 34.5052 25.3515 33.162L34.488 42.2985Z" fill="#FF0000"/>
<path d="M35.25 39.75H45.75V29.25H35.25V39.75ZM36.75 30.75H44.25V38.25H36.75V30.75Z" fill="#FF0000"/>
<path d="M39.75 34.9395L38.7803 33.9698L37.7198 35.0303L39.75 37.0605L44.0303 32.7803L42.9698 31.7198L39.75 34.9395Z" fill="#FF0000"/>
<path d="M35.25 27.75H45.75V17.25H35.25V27.75ZM36.75 18.75H44.25V26.25H36.75V18.75Z" fill="#FF0000"/>
<path d="M39.75 22.9395L38.7803 21.9698L37.7198 23.0303L39.75 25.0605L44.0303 20.7803L42.9698 19.7198L39.75 22.9395Z" fill="#FF0000"/>
<path d="M23.25 0.75V6.75H47.25V0.75H23.25ZM33.75 2.25H36.75V5.25H33.75V2.25ZM32.25 5.25H29.25V2.25H32.25V5.25ZM38.25 2.25H41.25V5.25H38.25V2.25ZM24.75 2.25H27.75V5.25H24.75V2.25ZM45.75 5.25H42.75V2.25H45.75V5.25Z" fill="#FF0000"/>
<path d="M27.75 8.25H41.25V9.75H27.75V8.25Z" fill="#FF0000"/>
<path d="M27.75 11.25H41.25V12.75H27.75V11.25Z" fill="#FF0000"/>
<path d="M39.75 14.25H41.25V15.75H39.75V14.25Z" fill="#FF0000"/>
<path d="M27.75 14.25H29.25V15.75H27.75V14.25Z" fill="#FF0000"/>
<path d="M33.75 14.25H35.25V15.75H33.75V14.25Z" fill="#FF0000"/>
<path d="M36.75 14.25H38.25V15.75H36.75V14.25Z" fill="#FF0000"/>
<path d="M30.75 14.25H32.25V15.75H30.75V14.25Z" fill="#FF0000"/>
</svg>
