<svg width="48" height="48" viewBox="0 0 48 48" fill="none" xmlns="http://www.w3.org/2000/svg">
<path d="M43.9992 16H42.689L38.1121 12.1855C37.9679 12.0656 37.7867 12 37.5992 12H24.7992C24.3574 12 23.9992 12.3582 23.9992 12.8V13.6H15.1992C14.7574 13.6 14.3992 13.9582 14.3992 14.4V21.6C14.3992 22.0418 14.7574 22.4 15.1992 22.4H16.4679L18.0679 24L17.0335 25.0344C16.7214 25.3469 16.7214 25.8531 17.0335 26.1656L26.6335 35.7656C26.946 36.0777 27.4523 36.0777 27.7648 35.7656L29.5992 33.9312L29.8335 34.1656C30.146 34.4777 30.6523 34.4777 30.9648 34.1656L39.5304 25.6H43.9992C44.441 25.6 44.7992 25.2418 44.7992 24.8V16.8C44.7992 16.3582 44.441 16 43.9992 16ZM19.7648 24.5656L19.9992 24.3312L21.2679 25.6L19.9992 26.8687L18.7304 25.6L19.7648 24.5656ZM22.3992 26.7312L23.6679 28L22.3992 29.2687L21.1304 28L22.3992 26.7312ZM24.7992 29.1312L26.0679 30.4L24.7992 31.6687L23.5304 30.4L24.7992 29.1312ZM27.1992 34.0687L25.9304 32.8L27.1992 31.5312L28.4679 32.8L27.1992 34.0687ZM35.9992 26.8687L32.5648 23.4344C32.2507 23.1312 31.7519 23.1355 31.4433 23.4441C31.1347 23.7527 31.1304 24.2516 31.4335 24.5656L34.8679 28L33.5992 29.2687L30.1648 25.8344C29.8507 25.5312 29.3519 25.5355 29.0433 25.8441C28.7347 26.1527 28.7304 26.6516 29.0335 26.9656L32.4679 30.4L30.3992 32.4687L20.5648 22.6344C20.2523 22.3223 19.746 22.3223 19.4335 22.6344L19.1992 22.8687L17.3648 21.0344C17.2148 20.8844 17.0113 20.8 16.7992 20.8H15.9992V15.2H23.9992V16C23.9992 16.4418 24.3574 16.8 24.7992 16.8H30.0679L38.0679 24.8L35.9992 26.8687ZM43.1992 24H39.5304L30.9648 15.4344C30.8148 15.2844 30.6113 15.2 30.3992 15.2H25.5992V13.6H37.3097L41.8863 17.4145C42.0304 17.5344 42.2117 17.6 42.3992 17.6H43.1992V24Z" fill="#FF0000"/>
<path d="M43.9992 38.4H35.9992C35.5574 38.4 35.1992 38.7582 35.1992 39.2C35.1992 39.6418 35.5574 40 35.9992 40H43.9992C44.441 40 44.7992 39.6418 44.7992 39.2C44.7992 38.7582 44.441 38.4 43.9992 38.4Z" fill="#FF0000"/>
<path d="M43.9992 41.6H35.9992C35.5574 41.6 35.1992 41.9582 35.1992 42.4C35.1992 42.8418 35.5574 43.2 35.9992 43.2H43.9992C44.441 43.2 44.7992 42.8418 44.7992 42.4C44.7992 41.9582 44.441 41.6 43.9992 41.6Z" fill="#FF0000"/>
<path d="M47.9474 6.94336C47.9388 6.91758 47.9321 6.89375 47.9208 6.86875C47.8821 6.78164 47.8279 6.70234 47.7611 6.63438L41.3611 0.234375C41.2935 0.167187 41.2146 0.112891 41.1275 0.0742188C41.1017 0.0625 41.0771 0.0558594 41.0474 0.0464844C40.9818 0.0242188 40.9134 0.0109375 40.8443 0.00625C40.8329 0.00898438 40.8169 0 40.7986 0H11.9986C11.5568 0 11.1986 0.358203 11.1986 0.8V2.59687L0.579413 5.63125C0.369647 5.69102 0.193475 5.83398 0.0919129 6.02695C-0.0100402 6.21992 -0.0287902 6.4457 0.0403504 6.65273L11.1986 40.1289V47.2C11.1986 47.6418 11.5568 48 11.9986 48H47.1986C47.6404 48 47.9986 47.6418 47.9986 47.2V7.2C47.988 7.11328 47.9708 7.02734 47.9474 6.94336ZM45.2673 6.4H41.5986V2.73125L45.2673 6.4ZM1.82199 6.93984L11.1986 4.26094V35.0703L1.82199 6.93984ZM12.7986 46.4V1.6H39.9986V7.2C39.9986 7.6418 40.3568 8 40.7986 8H46.3986V46.4H12.7986Z" fill="#FF0000"/>
</svg>
