<svg width="48" height="48" viewBox="0 0 48 48" fill="none" xmlns="http://www.w3.org/2000/svg">
<path d="M47.25 19.5V3C47.25 1.7595 46.2405 0.75 45 0.75H16.5C15.2595 0.75 14.25 1.7595 14.25 3V6.77625C13.9897 6.759 13.743 6.75 13.5 6.75C6.4695 6.75 0.75 12.4695 0.75 19.5C0.75 25.4955 4.91475 30.5243 10.5 31.8787V34.5C10.5 34.9027 10.6147 35.2755 10.8007 35.6032C10.1715 36.0023 9.75 36.7012 9.75 37.5V43.5C9.75 45.5677 11.4323 47.25 13.5 47.25C15.5677 47.25 17.25 45.5677 17.25 43.5V37.5C17.25 36.7012 16.8285 36.0023 16.1993 35.6032C16.3853 35.2755 16.5 34.9027 16.5 34.5V31.8787C19.5405 31.1393 22.1745 29.3078 23.9347 26.7945L24.4905 27.8745C24.219 28.4062 23.988 28.9657 23.8013 29.5462L21.75 30.2033V35.7975L23.8005 36.4545C23.9872 37.0357 24.2183 37.5952 24.4897 38.1263L23.5057 40.038L27.4613 43.9935L29.373 43.0095C29.9048 43.281 30.4643 43.512 31.0448 43.6987L31.7033 45.75H37.2975L37.9545 43.6995C38.535 43.5127 39.0952 43.2817 39.6263 43.0103L41.538 43.9943L45.4928 40.0387L44.5095 38.127C44.781 37.596 45.012 37.0357 45.1987 36.4552L47.25 35.7967V30.2025L45.1995 29.5455C45.0127 28.9658 44.7817 28.4048 44.5103 27.8738L45.4935 25.962L41.5387 22.0065L39.627 22.9905C39.0945 22.7183 38.535 22.488 37.9552 22.3013L37.7775 21.75H45C46.2405 21.75 47.25 20.7405 47.25 19.5ZM16.5 21.75H21.4245C20.4345 25.2743 17.2358 27.75 13.5 27.75C8.95125 27.75 5.25 24.0487 5.25 19.5C5.25 14.9513 8.95125 11.25 13.5 11.25C13.74 11.25 13.9905 11.2665 14.25 11.2928V19.5C14.25 20.7405 15.2595 21.75 16.5 21.75ZM15.75 43.5C15.75 44.7405 14.7405 45.75 13.5 45.75C12.2595 45.75 11.25 44.7405 11.25 43.5V37.5C11.25 37.086 11.586 36.75 12 36.75H12.75H14.25H15C15.414 36.75 15.75 37.086 15.75 37.5V43.5ZM15 34.5C15 34.914 14.664 35.25 14.25 35.25H12.75C12.336 35.25 12 34.914 12 34.5V32.154C12.4928 32.2118 12.9915 32.25 13.5 32.25C14.0077 32.25 14.5065 32.2095 15 32.151V34.5ZM13.5 30.75C7.29675 30.75 2.25 25.7033 2.25 19.5C2.25 13.2968 7.29675 8.25 13.5 8.25C13.7378 8.25 13.9875 8.262 14.25 8.28225V9.78375C13.9935 9.76275 13.7437 9.75 13.5 9.75C8.124 9.75 3.75 14.124 3.75 19.5C3.75 24.876 8.124 29.25 13.5 29.25C18.0578 29.25 21.9398 26.1308 22.971 21.75H24.5062C23.454 26.9355 18.8685 30.75 13.5 30.75ZM26.0265 21.75H31.2218L31.0455 22.3005C30.4658 22.4872 29.9055 22.7175 29.3738 22.9897L27.462 22.0057L25.3725 24.0952C25.6628 23.3467 25.8818 22.563 26.0265 21.75ZM36.768 23.517L37.1558 23.6265C37.8968 23.8358 38.6025 24.1267 39.2535 24.4912L39.6045 24.6877L41.2507 23.841L43.659 26.2493L42.8122 27.8948L43.0088 28.2465C43.3732 28.8967 43.6642 29.6033 43.8735 30.3442L43.983 30.732L45.75 31.2967V34.7025L43.983 35.268L43.8735 35.6558C43.6635 36.3983 43.3725 37.104 43.0095 37.7535L42.8122 38.1045L43.659 39.7507L41.2507 42.1598L39.6052 41.3122L39.2535 41.5088C38.6033 41.8725 37.8975 42.1642 37.1558 42.3743L36.768 42.4837L36.2033 44.25H32.7975L32.232 42.483L31.8442 42.3735C31.1017 42.1635 30.396 41.8725 29.7465 41.5095L29.3955 41.3122L27.7493 42.1598L25.3402 39.7507L26.1877 38.1045L25.9905 37.7535C25.6275 37.1048 25.3365 36.399 25.1257 35.6558L25.0163 35.268L23.25 34.7033V31.2975L25.017 30.732L25.1265 30.3442C25.3365 29.6017 25.6275 28.896 25.9905 28.2465L26.1877 27.8955L25.3402 26.2493L27.7493 23.841L29.3955 24.6877L29.7465 24.4912C30.3975 24.1267 31.1033 23.835 31.8442 23.6265L32.232 23.517L32.7967 21.75H36.2025L36.768 23.517ZM31.7033 20.25H16.5C16.086 20.25 15.75 19.9132 15.75 19.5V3C15.75 2.58675 16.086 2.25 16.5 2.25H45C45.414 2.25 45.75 2.58675 45.75 3V19.5C45.75 19.9132 45.414 20.25 45 20.25H37.2967H31.7033Z" fill="#FF0000"/>
<path d="M40.5 3.75C38.4323 3.75 36.75 5.43225 36.75 7.5C36.75 7.92 36.8355 8.3175 36.963 8.69475L33.6285 10.6403C33.0848 10.0913 32.3317 9.75 31.5 9.75C30.777 9.75 30.1222 10.017 29.604 10.4445L26.0348 7.84875C26.1698 7.5075 26.25 7.1385 26.25 6.75C26.25 5.0955 24.9045 3.75 23.25 3.75C21.5955 3.75 20.25 5.0955 20.25 6.75C20.25 7.75425 20.7503 8.64 21.51 9.1845L19.5593 14.256C19.539 14.2552 19.5203 14.25 19.5 14.25C18.2595 14.25 17.25 15.2595 17.25 16.5C17.25 17.7405 18.2595 18.75 19.5 18.75C20.7405 18.75 21.75 17.7405 21.75 16.5C21.75 15.8175 21.4388 15.213 20.9573 14.7997L22.9133 9.7155C23.025 9.729 23.1345 9.75 23.25 9.75C23.973 9.75 24.627 9.483 25.146 9.0555L28.7152 11.6512C28.5802 11.9925 28.5 12.3615 28.5 12.75C28.5 14.4045 29.8455 15.75 31.5 15.75C33.1545 15.75 34.5 14.4045 34.5 12.75C34.5 12.468 34.4482 12.2002 34.3755 11.9408L37.7183 9.99075C38.4053 10.7572 39.3923 11.25 40.5 11.25C42.5677 11.25 44.25 9.56775 44.25 7.5C44.25 5.43225 42.5677 3.75 40.5 3.75ZM19.5 17.25C19.086 17.25 18.75 16.9132 18.75 16.5C18.75 16.0868 19.086 15.75 19.5 15.75C19.914 15.75 20.25 16.0868 20.25 16.5C20.25 16.9132 19.914 17.25 19.5 17.25ZM23.25 8.25C22.4227 8.25 21.75 7.57725 21.75 6.75C21.75 5.92275 22.4227 5.25 23.25 5.25C24.0773 5.25 24.75 5.92275 24.75 6.75C24.75 7.57725 24.0773 8.25 23.25 8.25ZM31.5 14.25C30.6727 14.25 30 13.5773 30 12.75C30 11.9227 30.6727 11.25 31.5 11.25C32.3273 11.25 33 11.9227 33 12.75C33 13.5773 32.3273 14.25 31.5 14.25ZM40.5 9.75C39.2595 9.75 38.25 8.7405 38.25 7.5C38.25 6.2595 39.2595 5.25 40.5 5.25C41.7405 5.25 42.75 6.2595 42.75 7.5C42.75 8.7405 41.7405 9.75 40.5 9.75Z" fill="#FF0000"/>
<path d="M36.75 17.25H38.25V18.75H36.75V17.25Z" fill="#FF0000"/>
<path d="M39.75 17.25H41.25V18.75H39.75V17.25Z" fill="#FF0000"/>
<path d="M42.75 17.25H44.25V18.75H42.75V17.25Z" fill="#FF0000"/>
<path d="M36.75 14.25H44.25V15.75H36.75V14.25Z" fill="#FF0000"/>
<path d="M8.25 19.5H6.75C6.75 23.2215 9.77775 26.25 13.5 26.25V24.75C10.6058 24.75 8.25 22.395 8.25 19.5Z" fill="#FF0000"/>
<path d="M39.75 33H38.25C38.25 35.0677 36.5677 36.75 34.5 36.75V38.25C37.3942 38.25 39.75 35.8942 39.75 33Z" fill="#FF0000"/>
<path d="M26.25 33C26.25 37.5487 29.9513 41.25 34.5 41.25C39.0487 41.25 42.75 37.5487 42.75 33C42.75 28.4513 39.0487 24.75 34.5 24.75C29.9513 24.75 26.25 28.4513 26.25 33ZM34.5 26.25C38.2222 26.25 41.25 29.2778 41.25 33C41.25 36.7222 38.2222 39.75 34.5 39.75C30.7778 39.75 27.75 36.7222 27.75 33C27.75 29.2778 30.7778 26.25 34.5 26.25Z" fill="#FF0000"/>
</svg>
