<svg width="46" height="46" viewBox="0 0 46 46" fill="none" xmlns="http://www.w3.org/2000/svg">
<path d="M43.25 10.25H41.75V9.50001H42.5C43.0967 9.50001 43.669 9.26296 44.091 8.841C44.5129 8.41905 44.75 7.84675 44.75 7.25001C44.75 6.65328 44.5129 6.08098 44.091 5.65902C43.669 5.23706 43.0967 5.00001 42.5 5.00001H41.75V1.25001C41.7511 1.13259 41.7237 1.01666 41.6701 0.912152C41.6166 0.80765 41.5385 0.717698 41.4425 0.650012C41.3496 0.579673 41.2415 0.532162 41.1268 0.511317C41.0122 0.490472 40.8942 0.496876 40.7825 0.530012L31.1375 3.50001H26C25.8011 3.50001 25.6103 3.57903 25.4697 3.71968C25.329 3.86033 25.25 4.0511 25.25 4.25001V5.00001H23.75C23.5511 5.00001 23.3603 5.07903 23.2197 5.21968C23.079 5.36033 23 5.5511 23 5.75001V8.75001C23 8.94893 23.079 9.13969 23.2197 9.28034C23.3603 9.42099 23.5511 9.50001 23.75 9.50001H25.25V10.25H20.75V3.50001C20.75 3.3011 20.671 3.11033 20.5303 2.96968C20.3897 2.82903 20.1989 2.75001 20 2.75001H5C4.80109 2.75001 4.61032 2.82903 4.46967 2.96968C4.32902 3.11033 4.25 3.3011 4.25 3.50001V10.25H2.75C2.15381 10.2518 1.58255 10.4894 1.16098 10.911C0.739405 11.3326 0.501781 11.9038 0.5 12.5V36.5C0.501781 37.0962 0.739405 37.6675 1.16098 38.089C1.58255 38.5106 2.15381 38.7482 2.75 38.75H20V41H15.5C15.3011 41 15.1103 41.079 14.9697 41.2197C14.829 41.3603 14.75 41.5511 14.75 41.75V44.75C14.75 44.9489 14.829 45.1397 14.9697 45.2803C15.1103 45.421 15.3011 45.5 15.5 45.5H30.5C30.6989 45.5 30.8897 45.421 31.0303 45.2803C31.171 45.1397 31.25 44.9489 31.25 44.75V41.75C31.25 41.5511 31.171 41.3603 31.0303 41.2197C30.8897 41.079 30.6989 41 30.5 41H26V38.75H43.25C43.8462 38.7482 44.4175 38.5106 44.839 38.089C45.2606 37.6675 45.4982 37.0962 45.5 36.5V12.5C45.4982 11.9038 45.2606 11.3326 44.839 10.911C44.4175 10.4894 43.8462 10.2518 43.25 10.25ZM41.75 6.50001H42.5C42.6989 6.50001 42.8897 6.57903 43.0303 6.71968C43.171 6.86033 43.25 7.0511 43.25 7.25001C43.25 7.44892 43.171 7.63969 43.0303 7.78034C42.8897 7.92099 42.6989 8.00001 42.5 8.00001H41.75V6.50001ZM32 4.80501L40.25 2.26251V12.2375L32 9.69501V4.80501ZM26.75 5.00001H30.5V9.50001H26.75V5.00001ZM28.8875 11L28.3475 14.75H27.5V11H28.8875ZM24.5 8.00001V6.50001H25.25V8.00001H24.5ZM5.75 4.25001H19.25V14.75H5.75V4.25001ZM29.75 42.5V44H16.25V42.5H29.75ZM21.5 41V38.75H24.5V41H21.5ZM44 36.5C44 36.6989 43.921 36.8897 43.7803 37.0303C43.6397 37.171 43.4489 37.25 43.25 37.25H2.75C2.55109 37.25 2.36032 37.171 2.21967 37.0303C2.07902 36.8897 2 36.6989 2 36.5V35.75H44V36.5ZM44 34.25H2V12.5C2 12.3011 2.07902 12.1103 2.21967 11.9697C2.36032 11.829 2.55109 11.75 2.75 11.75H4.25V15.5C4.25 15.6989 4.32902 15.8897 4.46967 16.0303C4.61032 16.171 4.80109 16.25 5 16.25H20C20.1989 16.25 20.3897 16.171 20.5303 16.0303C20.671 15.8897 20.75 15.6989 20.75 15.5V11.75H26V15.5C26 15.6989 26.079 15.8897 26.2197 16.0303C26.3603 16.171 26.5511 16.25 26.75 16.25H29C29.1807 16.25 29.3553 16.1847 29.4917 16.0662C29.6282 15.9477 29.7172 15.7839 29.7425 15.605L30.4025 11H31.1375L40.7825 13.97C40.8529 13.9915 40.9264 14.0016 41 14C41.198 13.9971 41.3871 13.9172 41.5271 13.7771C41.6671 13.6371 41.7471 13.448 41.75 13.25V11.75H43.25C43.4489 11.75 43.6397 11.829 43.7803 11.9697C43.921 12.1103 44 12.3011 44 12.5V34.25Z" fill="#FF0000"/>
<path d="M4.25 32.75H23.75C23.9489 32.75 24.1397 32.671 24.2803 32.5303C24.421 32.3897 24.5 32.1989 24.5 32V20C24.5 19.8011 24.421 19.6103 24.2803 19.4697C24.1397 19.329 23.9489 19.25 23.75 19.25H4.25C4.05109 19.25 3.86032 19.329 3.71967 19.4697C3.57902 19.6103 3.5 19.8011 3.5 20V32C3.5 32.1989 3.57902 32.3897 3.71967 32.5303C3.86032 32.671 4.05109 32.75 4.25 32.75ZM5 31.25V21.3417L13.607 26.639C13.7252 26.7117 13.8612 26.7502 14 26.7502C14.1388 26.7502 14.2748 26.7117 14.393 26.639L23 21.3417V31.25H5ZM6.89975 20.75H21.1003L14 25.1195L6.89975 20.75Z" fill="#FF0000"/>
<path d="M26.75 28.25H28.25V30.5C28.25 30.6989 28.329 30.8897 28.4697 31.0303C28.6103 31.171 28.8011 31.25 29 31.25H41.75C41.9489 31.25 42.1397 31.171 42.2803 31.0303C42.421 30.8897 42.5 30.6989 42.5 30.5V21.5C42.5 21.3011 42.421 21.1103 42.2803 20.9697C42.1397 20.829 41.9489 20.75 41.75 20.75H41V18.5C41 18.3011 40.921 18.1103 40.7803 17.9697C40.6397 17.829 40.4489 17.75 40.25 17.75H26.75C26.5511 17.75 26.3603 17.829 26.2197 17.9697C26.079 18.1103 26 18.3011 26 18.5V27.5C26 27.6989 26.079 27.8897 26.2197 28.0303C26.3603 28.171 26.5511 28.25 26.75 28.25ZM41 29.75H29.75V22.25H41V29.75ZM27.5 19.25H39.5V20.75H29C28.8011 20.75 28.6103 20.829 28.4697 20.9697C28.329 21.1103 28.25 21.3011 28.25 21.5V26.75H27.5V19.25Z" fill="#FF0000"/>
<path d="M31.25 23.75H32.75V25.25H31.25V23.75Z" fill="#FF0000"/>
<path d="M34.25 23.75H39.5V25.25H34.25V23.75Z" fill="#FF0000"/>
<path d="M31.25 26.75H34.25V28.25H31.25V26.75Z" fill="#FF0000"/>
<path d="M35.75 26.75H39.5V28.25H35.75V26.75Z" fill="#FF0000"/>
<path d="M10.6055 12.3883C10.7142 12.4555 10.8384 12.4938 10.9661 12.4996C11.0938 12.5054 11.2209 12.4784 11.3353 12.4213L15.8353 10.1713C15.9601 10.1091 16.065 10.0133 16.1384 9.89472C16.2118 9.77614 16.2507 9.63946 16.2507 9.50001C16.2507 9.36056 16.2118 9.22388 16.1384 9.1053C16.065 8.98673 15.9601 8.89096 15.8353 8.82876L11.3353 6.57876C11.2209 6.52161 11.0938 6.49465 10.9661 6.50043C10.8383 6.50622 10.7142 6.54456 10.6055 6.61182C10.4967 6.67907 10.407 6.77301 10.3448 6.88471C10.2826 6.99641 10.2499 7.12216 10.25 7.25001V11.75C10.2499 11.8779 10.2826 12.0036 10.3448 12.1153C10.407 12.2271 10.4968 12.321 10.6055 12.3883ZM11.75 8.46351L13.823 9.50001L11.75 10.5365V8.46351Z" fill="#FF0000"/>
</svg>
