<svg width="48" height="48" viewBox="0 0 48 48" fill="none" xmlns="http://www.w3.org/2000/svg">
<path d="M44.625 15C43.2075 15 42.0487 16.1295 42.0015 17.5358L41.718 17.6775C40.9665 18.0532 40.5 18.8085 40.5 19.6478C40.5 20.2275 40.7347 20.7952 41.145 21.2055L42 22.0605V29.3153C42 29.6925 41.694 29.9985 41.271 29.9985C41.2702 29.9985 41.2695 29.9985 41.2688 29.9985L35.1015 29.3123L34.7137 27.7612C35.5283 27.2257 36.1567 26.433 36.4883 25.5H37.5C38.7405 25.5 39.75 24.4905 39.75 23.25V20.25C39.75 16.1145 36.3855 12.75 32.25 12.75C28.1145 12.75 24.75 16.1145 24.75 20.25V23.25C24.75 24.4905 25.7595 25.5 27 25.5H28.0125C28.344 26.4338 28.9718 27.2265 29.787 27.7612L29.3977 29.319L25.338 29.8268C24.8745 29.8845 24.4327 30.0247 24.006 30.2078C23.7615 30.102 23.5095 30.0157 23.2507 29.9505V20.25C23.2507 16.1145 19.8862 12.75 15.7507 12.75C11.6152 12.75 8.25075 16.1145 8.25075 20.25V29.8268L6.68475 30C6.3075 30 6 29.6933 6 29.3153V22.0605L6.855 21.2055C7.26525 20.796 7.5 20.2283 7.5 19.6478C7.5 18.8085 7.0335 18.0532 6.282 17.6775L5.9985 17.5358C5.95125 16.1295 4.7925 15 3.375 15C1.9275 15 0.75 16.1775 0.75 17.625V30.6593C0.75 31.8863 1.22775 33.039 2.09475 33.9053C2.9625 34.7723 4.11525 35.25 5.34075 35.25H8.25V47.25H25.5165H27H39.75V35.25H42.6593C43.8848 35.25 45.0375 34.7723 45.9053 33.9053C46.7723 33.039 47.25 31.8863 47.25 30.6593V17.625C47.25 16.1775 46.0725 15 44.625 15ZM42.3885 19.0192L43.5 18.4635V17.625C43.5 17.0047 44.0047 16.5 44.625 16.5C45.2453 16.5 45.75 17.0047 45.75 17.625V21H43.0605L42.2055 20.145C42.075 20.0145 42 19.833 42 19.6478C42 19.38 42.1493 19.1392 42.3885 19.0192ZM37.5 24H36.75V22.5H37.5C37.9132 22.5 38.25 22.836 38.25 23.25C38.25 23.664 37.9132 24 37.5 24ZM27 24C26.5868 24 26.25 23.664 26.25 23.25C26.25 22.836 26.5868 22.5 27 22.5H27.75V24H27ZM28.6283 19.5H27.75V21H27C26.736 21 26.4855 21.054 26.25 21.138V20.25C26.25 16.9418 28.9417 14.25 32.25 14.25C35.5583 14.25 38.25 16.9418 38.25 20.25V21.138C38.0145 21.054 37.764 21 37.5 21H36.75V19.5H35.8717C34.7115 19.5 33.618 19.05 32.7803 18.2197L32.25 17.6895L31.7197 18.2197C30.894 19.0455 29.796 19.5 28.6283 19.5ZM29.25 20.9678C30.3495 20.853 31.3822 20.4337 32.25 19.7512C33.1177 20.433 34.1512 20.853 35.25 20.9678V24C35.25 25.6545 33.9045 27 32.25 27C30.5955 27 29.25 25.6545 29.25 24V20.9678ZM32.25 28.5C32.619 28.5 32.9753 28.4505 33.3187 28.3665L33.6862 29.8357L32.25 31.7498L30.8137 29.8357L31.1813 28.3665C31.5247 28.4505 31.881 28.5 32.25 28.5ZM13.3118 30.7755L14.6677 31.68C14.3925 32.0243 13.974 32.25 13.5 32.25C12.7305 32.25 12.1028 31.6658 12.0173 30.9195L13.3118 30.7755ZM15.75 27C14.0955 27 12.75 25.6545 12.75 24V20.9678C13.8435 20.853 14.874 20.436 15.7485 19.7498C16.6162 20.433 17.6497 20.853 18.75 20.9678V24C18.75 25.6545 17.4045 27 15.75 27ZM15.75 28.5C16.119 28.5 16.4752 28.4505 16.8187 28.3665L17.1442 29.6692L15.75 30.5985L14.3558 29.6692L14.6813 28.3665C15.0248 28.4505 15.381 28.5 15.75 28.5ZM18.1838 30.7785L19.4805 30.9405C19.386 31.677 18.762 32.25 18 32.25C17.526 32.25 17.1075 32.0243 16.8323 31.68L18.1838 30.7785ZM18.603 29.3197L18.2137 27.762C19.0282 27.2265 19.6567 26.4337 19.9882 25.5007H21C21.264 25.5007 21.5145 25.4468 21.75 25.3628V29.7142L18.603 29.3197ZM20.25 22.5H21C21.4132 22.5 21.75 22.836 21.75 23.25C21.75 23.664 21.4132 24 21 24H20.25V22.5ZM15.75 14.25C19.0583 14.25 21.75 16.9418 21.75 20.25V21.138C21.5145 21.054 21.264 21 21 21H20.25V19.5H19.3717C18.204 19.5 17.106 19.0455 16.2803 18.2197L15.7365 17.7067L15.2062 18.2325C14.382 19.05 13.2892 19.5 12.1283 19.5H11.25V21H10.5C10.236 21 9.9855 21.054 9.75 21.138V20.25C9.75 16.9418 12.4418 14.25 15.75 14.25ZM11.25 24H10.5C10.0868 24 9.75 23.664 9.75 23.25C9.75 22.836 10.0868 22.5 10.5 22.5H11.25V24ZM9.75 25.362C9.9855 25.446 10.236 25.5 10.5 25.5H11.5125C11.844 26.4338 12.4717 27.2265 13.287 27.7612L12.8993 29.3123L9.75 29.661V25.362ZM3.375 16.5C3.99525 16.5 4.5 17.0047 4.5 17.625V18.4635L5.6115 19.0192C5.85075 19.1392 6 19.38 6 19.6478C6 19.833 5.925 20.0138 5.7945 20.145L4.9395 21H2.25V17.625C2.25 17.0047 2.75475 16.5 3.375 16.5ZM5.34075 33.75C4.52775 33.75 3.73125 33.42 3.15525 32.8447C2.57175 32.2612 2.25 31.485 2.25 30.6593V22.5H4.5V29.3153C4.5 30.5198 5.48025 31.5 6.68475 31.5C6.75 31.5 6.81375 31.497 6.89775 31.4895L10.5338 31.0845C10.7032 32.58 11.9602 33.75 13.5 33.75C14.4 33.75 15.1995 33.3435 15.75 32.7135C16.3005 33.3435 17.1 33.75 18 33.75C19.5255 33.75 20.7743 32.6017 20.9618 31.1257L22.476 31.3147C23.2335 31.4092 23.9482 31.7595 24.489 32.2995C25.1408 32.952 25.5 33.819 25.5 34.74V41.25H23.25V36.927C23.25 36.1785 23.6662 35.505 24.3352 35.1705L23.664 33.8288C22.4835 34.4205 21.75 35.6077 21.75 36.927V45.75H9.75V33.75H5.34075ZM23.25 45.75V42.75H25.5V45.75H23.25ZM44.8447 32.8447C44.2687 33.42 43.4723 33.75 42.6593 33.75H38.25V45.75H33V44.25H31.5V45.75H27V34.74C27 33.4478 26.505 32.232 25.6095 31.3042L29.6618 30.798L32.25 34.2502L34.8428 30.7927L41.1217 31.491C42.3787 31.602 43.5 30.5843 43.5 29.3153V22.5H45.75V30.6593C45.75 31.485 45.4282 32.2612 44.8447 32.8447Z" fill="#FF0000"/>
<path d="M31.5 38.25H33V39.75H31.5V38.25Z" fill="#FF0000"/>
<path d="M31.5 35.25H33V36.75H31.5V35.25Z" fill="#FF0000"/>
<path d="M31.5 41.25H33V42.75H31.5V41.25Z" fill="#FF0000"/>
<path d="M38.25 14.25H44.25V8.25H47.103L43.0335 1.73775C42.6465 1.119 41.9797 0.75 41.25 0.75C40.5202 0.75 39.8535 1.119 39.4665 1.73775L35.397 8.25H38.25V14.25ZM38.103 6.75L40.7385 2.5335C40.9597 2.17875 41.5395 2.17875 41.7607 2.5335L44.397 6.75H42.75V12.75H39.75V6.75H38.103Z" fill="#FF0000"/>
<path d="M21 14.25H27V8.25H29.853L25.7835 1.73775C25.3965 1.119 24.7297 0.75 24 0.75C23.2702 0.75 22.6035 1.119 22.2165 1.73775L18.147 8.25H21V14.25ZM20.853 6.75L23.4885 2.5335C23.7097 2.17875 24.2895 2.17875 24.5107 2.5335L27.147 6.75H25.5V12.75H22.5V6.75H20.853Z" fill="#FF0000"/>
<path d="M3.75003 14.25H9.75003V8.25H12.603L8.53353 1.73775C8.14653 1.119 7.47978 0.75 6.75003 0.75C6.02028 0.75 5.35353 1.119 4.96653 1.73775L0.897034 8.25H3.75003V14.25ZM3.60303 6.75L6.23853 2.5335C6.45978 2.17875 7.03953 2.17875 7.26078 2.5335L9.89703 6.75H8.25003V12.75H5.25003V6.75H3.60303Z" fill="#FF0000"/>
</svg>
