<svg width="48" height="48" viewBox="0 0 48 48" fill="none" xmlns="http://www.w3.org/2000/svg">
<path d="M44.25 15.8258V3C44.25 1.7595 43.2405 0.75 42 0.75H21C19.7595 0.75 18.75 1.7595 18.75 3V15.75H4.5C2.43225 15.75 0.75 17.4323 0.75 19.5V40.5C0.75 42.5677 2.43225 44.25 4.5 44.25H16.4047L16.5 44.4412V47.2327L30 47.268V44.5155L30.1987 44.25H43.5C45.5677 44.25 47.25 42.5677 47.25 40.5V19.5C47.25 17.6895 45.9593 16.1745 44.25 15.8258ZM45.75 19.5V26.25H43.5C42.6525 26.25 41.8785 26.5433 41.25 27.0195V18.75H42C42.9442 18.75 43.752 18.1635 44.085 17.337C45.0412 17.5957 45.75 18.4627 45.75 19.5ZM27 17.25V15.75C27 13.2682 29.0182 11.25 31.5 11.25C33.9818 11.25 36 13.2682 36 15.75V17.25H31.9395L29.0295 20.1593C28.8525 20.337 28.5 20.193 28.5 19.9395V17.25H27ZM36 9.75C35.8462 9.75 35.6932 9.73425 35.5462 9.70425C35.2575 9.645 34.9875 9.531 34.7438 9.366C34.7415 9.3645 34.7393 9.3615 34.737 9.36C35.0543 8.81025 35.25 8.18025 35.25 7.5C35.25 6.81975 35.0542 6.18975 34.7362 5.63925C34.7385 5.63775 34.7407 5.6355 34.743 5.634C34.9875 5.469 35.2583 5.355 35.5455 5.29575C35.6933 5.26575 35.8462 5.25 36 5.25C37.2405 5.25 38.25 6.2595 38.25 7.5C38.25 8.7405 37.2405 9.75 36 9.75ZM33.75 7.5C33.75 8.7405 32.7405 9.75 31.5 9.75C30.2595 9.75 29.25 8.7405 29.25 7.5C29.25 6.2595 30.2595 5.25 31.5 5.25C32.7405 5.25 33.75 6.2595 33.75 7.5ZM28.2562 9.34725C27.753 9.69225 27.1328 9.82425 26.5455 9.705C26.2568 9.64575 25.9868 9.53175 25.743 9.36675C25.623 9.28575 25.5105 9.19275 25.4093 9.09075C25.2023 8.8845 25.0403 8.64375 24.9263 8.376C24.8092 8.0985 24.75 7.803 24.75 7.5C24.75 7.19625 24.8092 6.9015 24.9263 6.624C25.0387 6.357 25.2015 6.11625 25.4093 5.9085C25.5113 5.80725 25.623 5.71425 25.7423 5.63325C25.9868 5.46825 26.2575 5.35425 26.5448 5.295C27.1343 5.1735 27.7537 5.307 28.2562 5.652C27.9435 6.20025 27.75 6.825 27.75 7.5C27.75 8.175 27.9435 8.79975 28.2562 9.34725ZM27 11.25C27.2048 11.25 27.4065 11.2275 27.606 11.1938C26.3197 12.2955 25.5 13.9275 25.5 15.75V17.25H22.5V15.75C22.5 13.2682 24.5182 11.25 27 11.25ZM35.388 11.1885C35.5897 11.2215 35.7938 11.25 36 11.25C38.4818 11.25 40.5 13.2682 40.5 15.75V17.25H37.5V15.75C37.5 13.9245 36.678 12.2902 35.388 11.1885ZM45.75 27.75V32.25H43.5C42.2595 32.25 41.25 31.2405 41.25 30C41.25 28.7595 42.2595 27.75 43.5 27.75H45.75ZM20.25 3C20.25 2.58675 20.586 2.25 21 2.25H42C42.414 2.25 42.75 2.58675 42.75 3V16.5C42.75 16.9132 42.414 17.25 42 17.25V15.75C42 13.326 40.5525 11.238 38.4788 10.2922C39.252 9.6045 39.75 8.61375 39.75 7.5C39.75 5.43225 38.0677 3.75 36 3.75C35.7458 3.75 35.4915 3.7755 35.244 3.8265C34.7617 3.9255 34.311 4.11525 33.9022 4.39125C33.8475 4.42875 33.8018 4.47825 33.7485 4.518C33.12 4.0425 32.3468 3.75 31.5 3.75C30.6502 3.75 29.874 4.04475 29.2448 4.52325C28.389 3.88125 27.2858 3.6135 26.244 3.82575C25.7618 3.92475 25.311 4.1145 24.9022 4.3905C24.7035 4.52475 24.5168 4.6785 24.3488 4.84725C24.0037 5.1915 23.7337 5.59275 23.5455 6.039C23.349 6.50325 23.25 6.9945 23.25 7.5C23.25 8.00475 23.349 8.496 23.5455 8.9595C23.7345 9.4065 24.0045 9.80775 24.3488 10.1512C24.4005 10.2037 24.465 10.2435 24.5198 10.2922C22.4468 11.2395 21 13.3267 21 15.75V17.25C20.586 17.25 20.25 16.9132 20.25 16.5V3ZM2.25 40.5V19.5C2.25 18.2595 3.2595 17.25 4.5 17.25H9.75V42.75H4.5C3.2595 42.75 2.25 41.7405 2.25 40.5ZM11.25 42.75V17.25H18.888C19.1985 18.1208 20.0235 18.75 21 18.75H27V19.9395C27 20.9377 27.8123 21.75 28.8105 21.75C29.2883 21.75 29.7547 21.5565 30.0907 21.2197L32.5605 18.75H39.75V42.75H31.3042C31.9087 41.877 32.25 40.8285 32.25 39.7658V31.5158C32.25 30.2752 31.2405 29.2658 30 29.2658C29.7038 29.2658 29.4225 29.3265 29.163 29.4308C28.9035 28.4745 28.0373 27.7658 27 27.7658C26.4217 27.7658 25.899 27.9915 25.5 28.3507C25.101 27.9907 24.5783 27.7658 24 27.7658C23.736 27.7658 23.4855 27.8198 23.25 27.9038V22.5C23.25 21.2595 22.2405 20.25 21 20.25C19.7595 20.25 18.75 21.2595 18.75 22.5V30.9585C17.7442 29.9002 16.317 29.235 14.7142 29.235C14.1712 29.244 13.6973 29.4382 13.3253 29.8095C12.954 30.1792 12.75 30.672 12.75 31.1978C12.75 31.5 12.822 31.8038 12.957 32.0768L13.8307 33.8242C14.1053 34.3717 14.25 34.9845 14.25 35.5973V38.6782C14.25 39.4837 14.4397 40.2915 14.7975 41.013L15.66 42.75H11.25ZM28.5 45.7635L18 45.7373V44.0902L16.1407 40.3478C15.8857 39.831 15.75 39.2542 15.75 38.6782V35.5973C15.75 34.7535 15.5497 33.9082 15.1725 33.153L14.2995 31.407C14.2665 31.3417 14.25 31.269 14.25 31.1978C14.25 31.074 14.298 30.9578 14.3857 30.87C14.4735 30.783 14.589 30.7342 14.7847 30.7342H14.7855C16.9718 30.7342 18.75 32.5125 18.75 34.6987V35.9842V37.4842H20.25V35.9842V34.6987V22.5C20.25 22.0868 20.586 21.75 21 21.75C21.414 21.75 21.75 22.0868 21.75 22.5V30.0158V33.0158H23.25V30.0158C23.25 29.6017 23.586 29.2658 24 29.2658C24.414 29.2658 24.75 29.6017 24.75 30.0158V33.0158H26.25V30.0158C26.25 29.6017 26.586 29.2658 27 29.2658C27.414 29.2658 27.75 29.6017 27.75 30.0158V31.5158V33.0158H29.25V31.5158C29.25 31.1017 29.586 30.7658 30 30.7658C30.414 30.7658 30.75 31.1017 30.75 31.5158V39.7658C30.75 40.572 30.4837 41.3715 30 42.0165L28.5 44.016V45.7635ZM43.5 42.75H41.25V32.9805C41.8785 33.4567 42.6525 33.75 43.5 33.75H45.75V40.5C45.75 41.7405 44.7405 42.75 43.5 42.75Z" fill="#FF0000"/>
<path d="M6.75 26.25H5.25C4.42275 26.25 3.75 26.9227 3.75 27.75V32.25C3.75 33.0773 4.42275 33.75 5.25 33.75H6.75C7.57725 33.75 8.25 33.0773 8.25 32.25V27.75C8.25 26.9227 7.57725 26.25 6.75 26.25ZM6.75 32.25L5.25 32.2515V27.75H6.75V32.25Z" fill="#FF0000"/>
<path d="M6.75 18.75H5.25C4.42275 18.75 3.75 19.4227 3.75 20.25V21.75C3.75 22.5773 4.42275 23.25 5.25 23.25H6.75C7.57725 23.25 8.25 22.5773 8.25 21.75V20.25C8.25 19.4227 7.57725 18.75 6.75 18.75ZM6.75 21.75L5.25 21.7507V20.25H6.75V21.75Z" fill="#FF0000"/>
<path d="M6.75 36.75H5.25C4.42275 36.75 3.75 37.4227 3.75 38.25V39.75C3.75 40.5773 4.42275 41.25 5.25 41.25H6.75C7.57725 41.25 8.25 40.5773 8.25 39.75V38.25C8.25 37.4227 7.57725 36.75 6.75 36.75ZM6.75 39.75L5.25 39.7515V38.25H6.75V39.75Z" fill="#FF0000"/>
<path d="M43.5 30.75C43.9142 30.75 44.25 30.4142 44.25 30C44.25 29.5858 43.9142 29.25 43.5 29.25C43.0858 29.25 42.75 29.5858 42.75 30C42.75 30.4142 43.0858 30.75 43.5 30.75Z" fill="#FF0000"/>
<path d="M32.25 20.25H38.25V21.75H32.25V20.25Z" fill="#FF0000"/>
<path d="M32.25 23.25H38.25V24.75H32.25V23.25Z" fill="#FF0000"/>
<path d="M32.25 26.25H38.25V27.75H32.25V26.25Z" fill="#FF0000"/>
<path d="M32.25 29.25H38.25V30.75H32.25V29.25Z" fill="#FF0000"/>
<path d="M33.75 32.25H38.25V33.75H33.75V32.25Z" fill="#FF0000"/>
<path d="M33.75 35.25H38.25V36.75H33.75V35.25Z" fill="#FF0000"/>
<path d="M33.75 38.25H38.25V39.75H33.75V38.25Z" fill="#FF0000"/>
</svg>
